<svg xmlns="http://www.w3.org/2000/svg" width="256" height="256" viewBox="0 0 100 100"><rect width="100" height="100" rx="20" fill="#e21c1c"></rect><path d="M27.31 64.44L6.69 64.44L6.69 60.31L2.56 60.31L2.56 56.19L10.81 56.19L10.81 60.31L23.19 60.31L23.19 35.56L31.44 35.56L31.44 60.31L27.31 60.31L27.31 64.44ZM64.44 64.44L39.69 64.44L39.69 60.31L35.56 60.31L35.56 56.19L39.69 56.19L39.69 52.06L56.19 52.06L56.19 47.94L39.69 47.94L39.69 39.69L43.81 39.69L43.81 35.56L52.06 35.56L52.06 39.69L56.19 39.69L56.19 35.56L60.31 35.56L60.31 39.69L56.19 39.69L56.19 43.81L60.31 43.81L60.31 47.94L64.44 47.94L64.44 64.44ZM43.81 39.69L43.81 43.81L47.94 43.81L47.94 39.69L43.81 39.69ZM43.81 56.19L43.81 60.31L56.19 60.31L56.19 56.19L43.81 56.19ZM93.31 64.44L72.69 64.44L72.69 60.31L68.56 60.31L68.56 47.94L72.69 47.94L72.69 43.81L93.31 43.81L93.31 47.94L97.44 47.94L97.44 60.31L93.31 60.31L93.31 64.44ZM76.81 47.94L76.81 60.31L89.19 60.31L89.19 47.94L76.81 47.94Z" fill="#fff"></path></svg>